<svg width="512" height="512" viewBox="0 0 512 512" fill="none" xmlns="http://www.w3.org/2000/svg">
<rect width="512" height="512" rx="116" fill="black"/>
<path fill-rule="evenodd" clip-rule="evenodd" d="M304 92.8C304 88.3196 304 86.0794 304.872 84.3681C305.639 82.8628 306.863 81.6389 308.368 80.8719C310.079 80 312.32 80 316.8 80H387.2C391.68 80 393.921 80 395.632 80.8719C397.137 81.6389 398.361 82.8628 399.128 84.3681C400 86.0794 400 88.3196 400 92.8V99.2C400 103.68 400 105.921 400.872 107.632C401.639 109.137 402.863 110.361 404.368 111.128C406.079 112 408.32 112 412.8 112H419.2C423.68 112 425.921 112 427.632 112.872C429.137 113.639 430.361 114.863 431.128 116.368C432 118.079 432 120.32 432 124.8V227.2C432 231.68 432 233.921 431.128 235.632C430.361 237.137 429.137 238.361 427.632 239.128C425.921 240 423.68 240 419.2 240H412.8C408.32 240 406.079 240 404.368 239.128C402.863 238.361 401.639 237.137 400.872 235.632C400 233.921 400 231.68 400 227.2V188.8C400 184.32 400 182.079 399.128 180.368C398.361 178.863 397.137 177.639 395.632 176.872C393.921 176 391.68 176 387.2 176H316.8C312.32 176 310.079 176 308.368 176.872C306.863 177.639 305.639 178.863 304.872 180.368C304 182.079 304 184.32 304 188.8V227.2C304 231.68 304 233.921 303.128 235.632C302.361 237.137 301.137 238.361 299.632 239.128C297.921 240 295.68 240 291.2 240H284.8C280.32 240 278.079 240 276.368 239.128C274.863 238.361 273.639 237.137 272.872 235.632C272 233.921 272 231.68 272 227.2V124.8C272 120.32 272 118.079 272.872 116.368C273.639 114.863 274.863 113.639 276.368 112.872C278.079 112 280.32 112 284.8 112L291.373 112C295.738 112 297.943 111.989 299.632 111.128C301.137 110.361 302.361 109.137 303.128 107.632C303.99 105.939 304 103.73 304 99.3467V92.8ZM400 131.2V124.8C400 120.32 400 118.079 399.128 116.368C398.361 114.863 397.137 113.639 395.632 112.872C393.921 112 391.68 112 387.2 112H316.8C312.32 112 310.079 112 308.368 112.872C306.863 113.639 305.639 114.863 304.872 116.368C304 118.079 304 120.32 304 124.8V131.2C304 135.68 304 137.921 304.872 139.632C305.639 141.137 306.863 142.361 308.368 143.128C310.079 144 312.32 144 316.8 144H387.2C391.68 144 393.921 144 395.632 143.128C397.137 142.361 398.361 141.137 399.128 139.632C400 137.921 400 135.68 400 131.2Z" fill="#FCFC06"/>
<path d="M112 284.8C112 280.32 112 278.079 112.872 276.368C113.639 274.863 114.863 273.639 116.368 272.872C118.079 272 120.32 272 124.8 272H227.2C231.68 272 233.921 272 235.632 272.872C237.137 273.639 238.361 274.863 239.128 276.368C240 278.079 240 280.32 240 284.8V291.2C240 295.68 240 297.921 239.128 299.632C238.361 301.137 237.137 302.361 235.632 303.128C233.921 304 231.68 304 227.2 304H124.8C120.32 304 118.079 304 116.368 304.872C114.863 305.639 113.639 306.863 112.872 308.368C112 310.079 112 312.32 112 316.8V323.2C112 327.68 112 329.921 112.872 331.632C113.639 333.137 114.863 334.361 116.368 335.128C118.079 336 120.32 336 124.8 336H227.2C231.68 336 233.921 336 235.632 336.872C237.137 337.639 238.361 338.863 239.128 340.368C240 342.079 240 344.32 240 348.8V387.2C240 391.68 240 393.921 239.128 395.632C238.361 397.137 237.137 398.361 235.632 399.128C233.921 400 231.68 400 227.2 400H220.8C216.32 400 214.079 400 212.368 400.872C210.863 401.639 209.639 402.863 208.872 404.368C208 406.079 208 408.32 208 412.8V419.2C208 423.68 208 425.921 207.128 427.632C206.361 429.137 205.137 430.361 203.632 431.128C201.921 432 199.68 432 195.2 432H92.8C88.3196 432 86.0794 432 84.3681 431.128C82.8628 430.361 81.6389 429.137 80.8719 427.632C80 425.921 80 423.68 80 419.2V412.8C80 408.32 80 406.079 80.8719 404.368C81.6389 402.863 82.8628 401.639 84.3681 400.872C86.0794 400 88.3196 400 92.8 400H195.2C199.68 400 201.921 400 203.632 399.128C205.137 398.361 206.361 397.137 207.128 395.632C208 393.921 208 391.68 208 387.2V380.8C208 376.32 208 374.079 207.128 372.368C206.361 370.863 205.137 369.639 203.632 368.872C201.921 368 199.68 368 195.2 368H92.8C88.3196 368 86.0794 368 84.3681 367.128C82.8628 366.361 81.6389 365.137 80.8719 363.632C80 361.921 80 359.68 80 355.2V316.8C80 312.32 80 310.079 80.8719 308.368C81.6389 306.863 82.8628 305.639 84.3681 304.872C86.0794 304 88.3196 304 92.8 304H99.2C103.68 304 105.921 304 107.632 303.128C109.137 302.361 110.361 301.137 111.128 299.632C112 297.921 112 295.68 112 291.2V284.8Z" fill="white"/>
<path d="M304 284.8C304 280.32 304 278.079 303.128 276.368C302.361 274.863 301.137 273.639 299.632 272.872C297.921 272 295.68 272 291.2 272H284.8C280.32 272 278.079 272 276.368 272.872C274.863 273.639 273.639 274.863 272.872 276.368C272 278.079 272 280.32 272 284.8V323.2C272 327.68 272 329.921 272.872 331.632C273.639 333.137 274.863 334.361 276.368 335.128C278.079 336 280.32 336 284.8 336H291.2C295.68 336 297.921 336 299.632 336.872C301.137 337.639 302.361 338.863 303.128 340.368C303.99 342.061 304 344.27 304 348.653V355.2C304 359.68 304 361.921 304.872 363.632C305.639 365.137 306.863 366.361 308.368 367.128C310.079 368 312.32 368 316.8 368H387.2C391.68 368 393.921 368 395.632 368.872C397.137 369.639 398.361 370.863 399.128 372.368C400 374.079 400 376.32 400 380.8V387.2C400 391.68 400 393.921 399.128 395.632C398.361 397.137 397.137 398.361 395.632 399.128C393.921 400 391.68 400 387.2 400H284.8C280.32 400 278.079 400 276.368 400.872C274.863 401.639 273.639 402.863 272.872 404.368C272 406.079 272 408.32 272 412.8V419.2C272 423.68 272 425.921 272.872 427.632C273.639 429.137 274.863 430.361 276.368 431.128C278.079 432 280.32 432 284.8 432H387.2C391.68 432 393.921 432 395.632 431.128C397.137 430.361 398.361 429.137 399.128 427.632C400 425.921 400 423.68 400 419.2V412.8C400 408.32 400 406.079 400.872 404.368C401.639 402.863 402.863 401.639 404.368 400.872C406.079 400 408.32 400 412.8 400H419.2C423.68 400 425.921 400 427.632 399.128C429.137 398.361 430.361 397.137 431.128 395.632C432 393.921 432 391.68 432 387.2V284.8C432 280.32 432 278.079 431.128 276.368C430.361 274.863 429.137 273.639 427.632 272.872C425.921 272 423.68 272 419.2 272H412.8C408.32 272 406.079 272 404.368 272.872C402.863 273.639 401.639 274.863 400.872 276.368C400 278.079 400 280.32 400 284.8V323.2C400 327.68 400 329.921 399.128 331.632C398.361 333.137 397.137 334.361 395.632 335.128C393.921 336 391.68 336 387.2 336H316.8C312.32 336 310.079 336 308.368 335.128C306.863 334.361 305.639 333.137 304.872 331.632C304 329.921 304 327.68 304 323.2V284.8Z" fill="white"/>
<path d="M112 92.8C112 88.3196 112 86.0794 112.872 84.3681C113.639 82.8628 114.863 81.6389 116.368 80.8719C118.079 80 120.32 80 124.8 80H227.2C231.68 80 233.921 80 235.632 80.8719C237.137 81.6389 238.361 82.8628 239.128 84.3681C240 86.0794 240 88.3196 240 92.8V99.2C240 103.68 240 105.921 239.128 107.632C238.361 109.137 237.137 110.361 235.632 111.128C233.921 112 231.68 112 227.2 112H124.8C120.32 112 118.079 112 116.368 112.872C114.863 113.639 113.639 114.863 112.872 116.368C112 118.079 112 120.32 112 124.8V131.2C112 135.68 112 137.921 112.872 139.632C113.639 141.137 114.863 142.361 116.368 143.128C118.079 144 120.32 144 124.8 144H227.2C231.68 144 233.921 144 235.632 144.872C237.137 145.639 238.361 146.863 239.128 148.368C240 150.079 240 152.32 240 156.8V163.2C240 167.68 240 169.921 239.128 171.632C238.361 173.137 237.137 174.361 235.632 175.128C233.921 176 231.68 176 227.2 176H124.8C120.32 176 118.079 176 116.368 176.872C114.863 177.639 113.639 178.863 112.872 180.368C112 182.079 112 184.32 112 188.8V195.2C112 199.68 112 201.921 112.872 203.632C113.639 205.137 114.863 206.361 116.368 207.128C118.079 208 120.32 208 124.8 208H227.2C231.68 208 233.921 208 235.632 208.872C237.137 209.639 238.361 210.863 239.128 212.368C240 214.079 240 216.32 240 220.8V227.2C240 231.68 240 233.921 239.128 235.632C238.361 237.137 237.137 238.361 235.632 239.128C233.921 240 231.68 240 227.2 240H124.8C120.32 240 118.079 240 116.368 239.128C114.863 238.361 113.639 237.137 112.872 235.632C112 233.921 112 231.68 112 227.2V220.8C112 216.32 112 214.079 111.128 212.368C110.361 210.863 109.137 209.639 107.632 208.872C105.921 208 103.68 208 99.2 208H92.8C88.3196 208 86.0794 208 84.3681 207.128C82.8628 206.361 81.6389 205.137 80.8719 203.632C80 201.921 80 199.68 80 195.2V124.8C80 120.32 80 118.079 80.8719 116.368C81.6389 114.863 82.8628 113.639 84.3681 112.872C86.0794 112 88.3196 112 92.8 112H99.2C103.68 112 105.921 112 107.632 111.128C109.137 110.361 110.361 109.137 111.128 107.632C112 105.921 112 103.68 112 99.2V92.8Z" fill="white"/>
</svg>